<svg xmlns="http://www.w3.org/2000/svg" width="1920" height="937" style="cursor: move;"><g transform="translate(-260.9992329676502,-131.3204974615361) scale(1.3195079107728946)"><path class="link" marker-end="" d="M800,238.5, 980,310" style="stroke-width: 0.86; stroke-opacity: 1; stroke: rgb(80, 80, 80);"></path><path class="link" marker-end="" d="M800,238.5, 980,343" style="stroke-width: 0.86; stroke-opacity: 1; stroke: rgb(80, 80, 80);"></path><path class="link" marker-end="" d="M800,238.5, 980,376" style="stroke-width: 0.86; stroke-opacity: 1; stroke: rgb(80, 80, 80);"></path><path class="link" marker-end="" d="M800,238.5, 980,409" style="stroke-width: 0.86; stroke-opacity: 1; stroke: rgb(80, 80, 80);"></path><path class="link" marker-end="" d="M800,238.5, 980,442" style="stroke-width: 0.86; stroke-opacity: 1; stroke: rgb(80, 80, 80);"></path><path class="link" marker-end="" d="M800,238.5, 980,475" style="stroke-width: 0.86; stroke-opacity: 1; stroke: rgb(80, 80, 80);"></path><path class="link" marker-end="" d="M800,238.5, 980,508" style="stroke-width: 0.86; stroke-opacity: 1; stroke: rgb(80, 80, 80);"></path><path class="link" marker-end="" d="M800,238.5, 980,541" style="stroke-width: 0.86; stroke-opacity: 1; stroke: rgb(80, 80, 80);"></path><path class="link" marker-end="" d="M800,238.5, 980,574" style="stroke-width: 0.86; stroke-opacity: 1; stroke: rgb(80, 80, 80);"></path><path class="link" marker-end="" d="M800,238.5, 980,607" style="stroke-width: 0.86; stroke-opacity: 1; stroke: rgb(80, 80, 80);"></path><path class="link" marker-end="" d="M800,278.5, 980,310" style="stroke-width: 0.86; stroke-opacity: 1; stroke: rgb(80, 80, 80);"></path><path class="link" marker-end="" d="M800,278.5, 980,343" style="stroke-width: 0.86; stroke-opacity: 1; stroke: rgb(80, 80, 80);"></path><path class="link" marker-end="" d="M800,278.5, 980,376" style="stroke-width: 0.86; stroke-opacity: 1; stroke: rgb(80, 80, 80);"></path><path class="link" marker-end="" d="M800,278.5, 980,409" style="stroke-width: 0.86; stroke-opacity: 1; stroke: rgb(80, 80, 80);"></path><path class="link" marker-end="" d="M800,278.5, 980,442" style="stroke-width: 0.86; stroke-opacity: 1; stroke: rgb(80, 80, 80);"></path><path class="link" marker-end="" d="M800,278.5, 980,475" style="stroke-width: 0.86; stroke-opacity: 1; stroke: rgb(80, 80, 80);"></path><path class="link" marker-end="" d="M800,278.5, 980,508" style="stroke-width: 0.86; stroke-opacity: 1; stroke: rgb(80, 80, 80);"></path><path class="link" marker-end="" d="M800,278.5, 980,541" style="stroke-width: 0.86; stroke-opacity: 1; stroke: rgb(80, 80, 80);"></path><path class="link" marker-end="" d="M800,278.5, 980,574" style="stroke-width: 0.86; stroke-opacity: 1; stroke: rgb(80, 80, 80);"></path><path class="link" marker-end="" d="M800,278.5, 980,607" style="stroke-width: 0.86; stroke-opacity: 1; stroke: rgb(80, 80, 80);"></path><path class="link" marker-end="" d="M800,318.5, 980,310" style="stroke-width: 0.86; stroke-opacity: 1; stroke: rgb(80, 80, 80);"></path><path class="link" marker-end="" d="M800,318.5, 980,343" style="stroke-width: 0.86; stroke-opacity: 1; stroke: rgb(80, 80, 80);"></path><path class="link" marker-end="" d="M800,318.5, 980,376" style="stroke-width: 0.86; stroke-opacity: 1; stroke: rgb(80, 80, 80);"></path><path class="link" marker-end="" d="M800,318.5, 980,409" style="stroke-width: 0.86; stroke-opacity: 1; stroke: rgb(80, 80, 80);"></path><path class="link" marker-end="" d="M800,318.5, 980,442" style="stroke-width: 0.86; stroke-opacity: 1; stroke: rgb(80, 80, 80);"></path><path class="link" marker-end="" d="M800,318.5, 980,475" style="stroke-width: 0.86; stroke-opacity: 1; stroke: rgb(80, 80, 80);"></path><path class="link" marker-end="" d="M800,318.5, 980,508" style="stroke-width: 0.86; stroke-opacity: 1; stroke: rgb(80, 80, 80);"></path><path class="link" marker-end="" d="M800,318.5, 980,541" style="stroke-width: 0.86; stroke-opacity: 1; stroke: rgb(80, 80, 80);"></path><path class="link" marker-end="" d="M800,318.5, 980,574" style="stroke-width: 0.86; stroke-opacity: 1; stroke: rgb(80, 80, 80);"></path><path class="link" marker-end="" d="M800,318.5, 980,607" style="stroke-width: 0.86; stroke-opacity: 1; stroke: rgb(80, 80, 80);"></path><path class="link" marker-end="" d="M800,358.5, 980,310" style="stroke-width: 0.86; stroke-opacity: 1; stroke: rgb(80, 80, 80);"></path><path class="link" marker-end="" d="M800,358.5, 980,343" style="stroke-width: 0.86; stroke-opacity: 1; stroke: rgb(80, 80, 80);"></path><path class="link" marker-end="" d="M800,358.5, 980,376" style="stroke-width: 0.86; stroke-opacity: 1; stroke: rgb(80, 80, 80);"></path><path class="link" marker-end="" d="M800,358.5, 980,409" style="stroke-width: 0.86; stroke-opacity: 1; stroke: rgb(80, 80, 80);"></path><path class="link" marker-end="" d="M800,358.5, 980,442" style="stroke-width: 0.86; stroke-opacity: 1; stroke: rgb(80, 80, 80);"></path><path class="link" marker-end="" d="M800,358.5, 980,475" style="stroke-width: 0.86; stroke-opacity: 1; stroke: rgb(80, 80, 80);"></path><path class="link" marker-end="" d="M800,358.5, 980,508" style="stroke-width: 0.86; stroke-opacity: 1; stroke: rgb(80, 80, 80);"></path><path class="link" marker-end="" d="M800,358.5, 980,541" style="stroke-width: 0.86; stroke-opacity: 1; stroke: rgb(80, 80, 80);"></path><path class="link" marker-end="" d="M800,358.5, 980,574" style="stroke-width: 0.86; stroke-opacity: 1; stroke: rgb(80, 80, 80);"></path><path class="link" marker-end="" d="M800,358.5, 980,607" style="stroke-width: 0.86; stroke-opacity: 1; stroke: rgb(80, 80, 80);"></path><path class="link" marker-end="" d="M800,398.5, 980,310" style="stroke-width: 0.86; stroke-opacity: 1; stroke: rgb(80, 80, 80);"></path><path class="link" marker-end="" d="M800,398.5, 980,343" style="stroke-width: 0.86; stroke-opacity: 1; stroke: rgb(80, 80, 80);"></path><path class="link" marker-end="" d="M800,398.5, 980,376" style="stroke-width: 0.86; stroke-opacity: 1; stroke: rgb(80, 80, 80);"></path><path class="link" marker-end="" d="M800,398.5, 980,409" style="stroke-width: 0.86; stroke-opacity: 1; stroke: rgb(80, 80, 80);"></path><path class="link" marker-end="" d="M800,398.5, 980,442" style="stroke-width: 0.86; stroke-opacity: 1; stroke: rgb(80, 80, 80);"></path><path class="link" marker-end="" d="M800,398.5, 980,475" style="stroke-width: 0.86; stroke-opacity: 1; stroke: rgb(80, 80, 80);"></path><path class="link" marker-end="" d="M800,398.5, 980,508" style="stroke-width: 0.86; stroke-opacity: 1; stroke: rgb(80, 80, 80);"></path><path class="link" marker-end="" d="M800,398.5, 980,541" style="stroke-width: 0.86; stroke-opacity: 1; stroke: rgb(80, 80, 80);"></path><path class="link" marker-end="" d="M800,398.5, 980,574" style="stroke-width: 0.86; stroke-opacity: 1; stroke: rgb(80, 80, 80);"></path><path class="link" marker-end="" d="M800,398.5, 980,607" style="stroke-width: 0.86; stroke-opacity: 1; stroke: rgb(80, 80, 80);"></path><path class="link" marker-end="" d="M800,438.5, 980,310" style="stroke-width: 0.86; stroke-opacity: 1; stroke: rgb(80, 80, 80);"></path><path class="link" marker-end="" d="M800,438.5, 980,343" style="stroke-width: 0.86; stroke-opacity: 1; stroke: rgb(80, 80, 80);"></path><path class="link" marker-end="" d="M800,438.5, 980,376" style="stroke-width: 0.86; stroke-opacity: 1; stroke: rgb(80, 80, 80);"></path><path class="link" marker-end="" d="M800,438.5, 980,409" style="stroke-width: 0.86; stroke-opacity: 1; stroke: rgb(80, 80, 80);"></path><path class="link" marker-end="" d="M800,438.5, 980,442" style="stroke-width: 0.86; stroke-opacity: 1; stroke: rgb(80, 80, 80);"></path><path class="link" marker-end="" d="M800,438.5, 980,475" style="stroke-width: 0.86; stroke-opacity: 1; stroke: rgb(80, 80, 80);"></path><path class="link" marker-end="" d="M800,438.5, 980,508" style="stroke-width: 0.86; stroke-opacity: 1; stroke: rgb(80, 80, 80);"></path><path class="link" marker-end="" d="M800,438.5, 980,541" style="stroke-width: 0.86; stroke-opacity: 1; stroke: rgb(80, 80, 80);"></path><path class="link" marker-end="" d="M800,438.5, 980,574" style="stroke-width: 0.86; stroke-opacity: 1; stroke: rgb(80, 80, 80);"></path><path class="link" marker-end="" d="M800,438.5, 980,607" style="stroke-width: 0.86; stroke-opacity: 1; stroke: rgb(80, 80, 80);"></path><path class="link" marker-end="" d="M800,478.5, 980,310" style="stroke-width: 0.86; stroke-opacity: 1; stroke: rgb(80, 80, 80);"></path><path class="link" marker-end="" d="M800,478.5, 980,343" style="stroke-width: 0.86; stroke-opacity: 1; stroke: rgb(80, 80, 80);"></path><path class="link" marker-end="" d="M800,478.5, 980,376" style="stroke-width: 0.86; stroke-opacity: 1; stroke: rgb(80, 80, 80);"></path><path class="link" marker-end="" d="M800,478.5, 980,409" style="stroke-width: 0.86; stroke-opacity: 1; stroke: rgb(80, 80, 80);"></path><path class="link" marker-end="" d="M800,478.5, 980,442" style="stroke-width: 0.86; stroke-opacity: 1; stroke: rgb(80, 80, 80);"></path><path class="link" marker-end="" d="M800,478.5, 980,475" style="stroke-width: 0.86; stroke-opacity: 1; stroke: rgb(80, 80, 80);"></path><path class="link" marker-end="" d="M800,478.5, 980,508" style="stroke-width: 0.86; stroke-opacity: 1; stroke: rgb(80, 80, 80);"></path><path class="link" marker-end="" d="M800,478.5, 980,541" style="stroke-width: 0.86; stroke-opacity: 1; stroke: rgb(80, 80, 80);"></path><path class="link" marker-end="" d="M800,478.5, 980,574" style="stroke-width: 0.86; stroke-opacity: 1; stroke: rgb(80, 80, 80);"></path><path class="link" marker-end="" d="M800,478.5, 980,607" style="stroke-width: 0.86; stroke-opacity: 1; stroke: rgb(80, 80, 80);"></path><path class="link" marker-end="" d="M800,518.5, 980,310" style="stroke-width: 0.86; stroke-opacity: 1; stroke: rgb(80, 80, 80);"></path><path class="link" marker-end="" d="M800,518.5, 980,343" style="stroke-width: 0.86; stroke-opacity: 1; stroke: rgb(80, 80, 80);"></path><path class="link" marker-end="" d="M800,518.5, 980,376" style="stroke-width: 0.86; stroke-opacity: 1; stroke: rgb(80, 80, 80);"></path><path class="link" marker-end="" d="M800,518.5, 980,409" style="stroke-width: 0.86; stroke-opacity: 1; stroke: rgb(80, 80, 80);"></path><path class="link" marker-end="" d="M800,518.5, 980,442" style="stroke-width: 0.86; stroke-opacity: 1; stroke: rgb(80, 80, 80);"></path><path class="link" marker-end="" d="M800,518.5, 980,475" style="stroke-width: 0.86; stroke-opacity: 1; stroke: rgb(80, 80, 80);"></path><path class="link" marker-end="" d="M800,518.5, 980,508" style="stroke-width: 0.86; stroke-opacity: 1; stroke: rgb(80, 80, 80);"></path><path class="link" marker-end="" d="M800,518.5, 980,541" style="stroke-width: 0.86; stroke-opacity: 1; stroke: rgb(80, 80, 80);"></path><path class="link" marker-end="" d="M800,518.5, 980,574" style="stroke-width: 0.86; stroke-opacity: 1; stroke: rgb(80, 80, 80);"></path><path class="link" marker-end="" d="M800,518.5, 980,607" style="stroke-width: 0.86; stroke-opacity: 1; stroke: rgb(80, 80, 80);"></path><path class="link" marker-end="" d="M800,558.5, 980,310" style="stroke-width: 0.86; stroke-opacity: 1; stroke: rgb(80, 80, 80);"></path><path class="link" marker-end="" d="M800,558.5, 980,343" style="stroke-width: 0.86; stroke-opacity: 1; stroke: rgb(80, 80, 80);"></path><path class="link" marker-end="" d="M800,558.5, 980,376" style="stroke-width: 0.86; stroke-opacity: 1; stroke: rgb(80, 80, 80);"></path><path class="link" marker-end="" d="M800,558.5, 980,409" style="stroke-width: 0.86; stroke-opacity: 1; stroke: rgb(80, 80, 80);"></path><path class="link" marker-end="" d="M800,558.5, 980,442" style="stroke-width: 0.86; stroke-opacity: 1; stroke: rgb(80, 80, 80);"></path><path class="link" marker-end="" d="M800,558.5, 980,475" style="stroke-width: 0.86; stroke-opacity: 1; stroke: rgb(80, 80, 80);"></path><path class="link" marker-end="" d="M800,558.5, 980,508" style="stroke-width: 0.86; stroke-opacity: 1; stroke: rgb(80, 80, 80);"></path><path class="link" marker-end="" d="M800,558.5, 980,541" style="stroke-width: 0.86; stroke-opacity: 1; stroke: rgb(80, 80, 80);"></path><path class="link" marker-end="" d="M800,558.5, 980,574" style="stroke-width: 0.86; stroke-opacity: 1; stroke: rgb(80, 80, 80);"></path><path class="link" marker-end="" d="M800,558.5, 980,607" style="stroke-width: 0.86; stroke-opacity: 1; stroke: rgb(80, 80, 80);"></path><path class="link" marker-end="" d="M800,598.5, 980,310" style="stroke-width: 0.86; stroke-opacity: 1; stroke: rgb(80, 80, 80);"></path><path class="link" marker-end="" d="M800,598.5, 980,343" style="stroke-width: 0.86; stroke-opacity: 1; stroke: rgb(80, 80, 80);"></path><path class="link" marker-end="" d="M800,598.5, 980,376" style="stroke-width: 0.86; stroke-opacity: 1; stroke: rgb(80, 80, 80);"></path><path class="link" marker-end="" d="M800,598.5, 980,409" style="stroke-width: 0.86; stroke-opacity: 1; stroke: rgb(80, 80, 80);"></path><path class="link" marker-end="" d="M800,598.5, 980,442" style="stroke-width: 0.86; stroke-opacity: 1; stroke: rgb(80, 80, 80);"></path><path class="link" marker-end="" d="M800,598.5, 980,475" style="stroke-width: 0.86; stroke-opacity: 1; stroke: rgb(80, 80, 80);"></path><path class="link" marker-end="" d="M800,598.5, 980,508" style="stroke-width: 0.86; stroke-opacity: 1; stroke: rgb(80, 80, 80);"></path><path class="link" marker-end="" d="M800,598.5, 980,541" style="stroke-width: 0.86; stroke-opacity: 1; stroke: rgb(80, 80, 80);"></path><path class="link" marker-end="" d="M800,598.5, 980,574" style="stroke-width: 0.86; stroke-opacity: 1; stroke: rgb(80, 80, 80);"></path><path class="link" marker-end="" d="M800,598.5, 980,607" style="stroke-width: 0.86; stroke-opacity: 1; stroke: rgb(80, 80, 80);"></path><path class="link" marker-end="" d="M800,638.5, 980,310" style="stroke-width: 0.86; stroke-opacity: 1; stroke: rgb(80, 80, 80);"></path><path class="link" marker-end="" d="M800,638.5, 980,343" style="stroke-width: 0.86; stroke-opacity: 1; stroke: rgb(80, 80, 80);"></path><path class="link" marker-end="" d="M800,638.5, 980,376" style="stroke-width: 0.86; stroke-opacity: 1; stroke: rgb(80, 80, 80);"></path><path class="link" marker-end="" d="M800,638.5, 980,409" style="stroke-width: 0.86; stroke-opacity: 1; stroke: rgb(80, 80, 80);"></path><path class="link" marker-end="" d="M800,638.5, 980,442" style="stroke-width: 0.86; stroke-opacity: 1; stroke: rgb(80, 80, 80);"></path><path class="link" marker-end="" d="M800,638.5, 980,475" style="stroke-width: 0.86; stroke-opacity: 1; stroke: rgb(80, 80, 80);"></path><path class="link" marker-end="" d="M800,638.5, 980,508" style="stroke-width: 0.86; stroke-opacity: 1; stroke: rgb(80, 80, 80);"></path><path class="link" marker-end="" d="M800,638.5, 980,541" style="stroke-width: 0.86; stroke-opacity: 1; stroke: rgb(80, 80, 80);"></path><path class="link" marker-end="" d="M800,638.5, 980,574" style="stroke-width: 0.86; stroke-opacity: 1; stroke: rgb(80, 80, 80);"></path><path class="link" marker-end="" d="M800,638.5, 980,607" style="stroke-width: 0.86; stroke-opacity: 1; stroke: rgb(80, 80, 80);"></path><path class="link" marker-end="" d="M800,678.5, 980,310" style="stroke-width: 0.86; stroke-opacity: 1; stroke: rgb(80, 80, 80);"></path><path class="link" marker-end="" d="M800,678.5, 980,343" style="stroke-width: 0.86; stroke-opacity: 1; stroke: rgb(80, 80, 80);"></path><path class="link" marker-end="" d="M800,678.5, 980,376" style="stroke-width: 0.86; stroke-opacity: 1; stroke: rgb(80, 80, 80);"></path><path class="link" marker-end="" d="M800,678.5, 980,409" style="stroke-width: 0.86; stroke-opacity: 1; stroke: rgb(80, 80, 80);"></path><path class="link" marker-end="" d="M800,678.5, 980,442" style="stroke-width: 0.86; stroke-opacity: 1; stroke: rgb(80, 80, 80);"></path><path class="link" marker-end="" d="M800,678.5, 980,475" style="stroke-width: 0.86; stroke-opacity: 1; stroke: rgb(80, 80, 80);"></path><path class="link" marker-end="" d="M800,678.5, 980,508" style="stroke-width: 0.86; stroke-opacity: 1; stroke: rgb(80, 80, 80);"></path><path class="link" marker-end="" d="M800,678.5, 980,541" style="stroke-width: 0.86; stroke-opacity: 1; stroke: rgb(80, 80, 80);"></path><path class="link" marker-end="" d="M800,678.5, 980,574" style="stroke-width: 0.86; stroke-opacity: 1; stroke: rgb(80, 80, 80);"></path><path class="link" marker-end="" d="M800,678.5, 980,607" style="stroke-width: 0.86; stroke-opacity: 1; stroke: rgb(80, 80, 80);"></path><path class="link" marker-end="" d="M980,310, 1160,458.5" style="stroke-width: 0.86; stroke-opacity: 1; stroke: rgb(80, 80, 80);"></path><path class="link" marker-end="" d="M980,343, 1160,458.5" style="stroke-width: 0.86; stroke-opacity: 1; stroke: rgb(80, 80, 80);"></path><path class="link" marker-end="" d="M980,376, 1160,458.5" style="stroke-width: 0.86; stroke-opacity: 1; stroke: rgb(80, 80, 80);"></path><path class="link" marker-end="" d="M980,409, 1160,458.5" style="stroke-width: 0.86; stroke-opacity: 1; stroke: rgb(80, 80, 80);"></path><path class="link" marker-end="" d="M980,442, 1160,458.5" style="stroke-width: 0.86; stroke-opacity: 1; stroke: rgb(80, 80, 80);"></path><path class="link" marker-end="" d="M980,475, 1160,458.5" style="stroke-width: 0.86; stroke-opacity: 1; stroke: rgb(80, 80, 80);"></path><path class="link" marker-end="" d="M980,508, 1160,458.5" style="stroke-width: 0.86; stroke-opacity: 1; stroke: rgb(80, 80, 80);"></path><path class="link" marker-end="" d="M980,541, 1160,458.5" style="stroke-width: 0.86; stroke-opacity: 1; stroke: rgb(80, 80, 80);"></path><path class="link" marker-end="" d="M980,574, 1160,458.5" style="stroke-width: 0.86; stroke-opacity: 1; stroke: rgb(80, 80, 80);"></path><path class="link" marker-end="" d="M980,607, 1160,458.5" style="stroke-width: 0.86; stroke-opacity: 1; stroke: rgb(80, 80, 80);"></path><circle r="10" class="node" id="0_0" cx="800" cy="238.5" style="fill: rgb(255, 255, 255); stroke: rgb(51, 51, 51);"></circle><circle r="10" class="node" id="0_1" cx="800" cy="278.5" style="fill: rgb(255, 255, 255); stroke: rgb(51, 51, 51);"></circle><circle r="10" class="node" id="0_2" cx="800" cy="318.5" style="fill: rgb(255, 255, 255); stroke: rgb(51, 51, 51);"></circle><circle r="10" class="node" id="0_3" cx="800" cy="358.5" style="fill: rgb(255, 255, 255); stroke: rgb(51, 51, 51);"></circle><circle r="10" class="node" id="0_4" cx="800" cy="398.5" style="fill: rgb(255, 255, 255); stroke: rgb(51, 51, 51);"></circle><circle r="10" class="node" id="0_5" cx="800" cy="438.5" style="fill: rgb(255, 255, 255); stroke: rgb(51, 51, 51);"></circle><circle r="10" class="node" id="0_6" cx="800" cy="478.5" style="fill: rgb(255, 255, 255); stroke: rgb(51, 51, 51);"></circle><circle r="10" class="node" id="0_7" cx="800" cy="518.5" style="fill: rgb(255, 255, 255); stroke: rgb(51, 51, 51);"></circle><circle r="10" class="node" id="0_8" cx="800" cy="558.5" style="fill: rgb(255, 255, 255); stroke: rgb(51, 51, 51);"></circle><circle r="10" class="node" id="0_9" cx="800" cy="598.5" style="fill: rgb(255, 255, 255); stroke: rgb(51, 51, 51);"></circle><circle r="10" class="node" id="0_10" cx="800" cy="638.5" style="fill: rgb(255, 255, 255); stroke: rgb(51, 51, 51);"></circle><circle r="10" class="node" id="0_11" cx="800" cy="678.5" style="fill: rgb(255, 255, 255); stroke: rgb(51, 51, 51);"></circle><circle r="10" class="node" id="1_0" cx="980" cy="310" style="fill: rgb(255, 255, 255); stroke: rgb(51, 51, 51);"></circle><circle r="10" class="node" id="1_1" cx="980" cy="343" style="fill: rgb(255, 255, 255); stroke: rgb(51, 51, 51);"></circle><circle r="10" class="node" id="1_2" cx="980" cy="376" style="fill: rgb(255, 255, 255); stroke: rgb(51, 51, 51);"></circle><circle r="10" class="node" id="1_3" cx="980" cy="409" style="fill: rgb(255, 255, 255); stroke: rgb(51, 51, 51);"></circle><circle r="10" class="node" id="1_4" cx="980" cy="442" style="fill: rgb(255, 255, 255); stroke: rgb(51, 51, 51);"></circle><circle r="10" class="node" id="1_5" cx="980" cy="475" style="fill: rgb(255, 255, 255); stroke: rgb(51, 51, 51);"></circle><circle r="10" class="node" id="1_6" cx="980" cy="508" style="fill: rgb(255, 255, 255); stroke: rgb(51, 51, 51);"></circle><circle r="10" class="node" id="1_7" cx="980" cy="541" style="fill: rgb(255, 255, 255); stroke: rgb(51, 51, 51);"></circle><circle r="10" class="node" id="1_8" cx="980" cy="574" style="fill: rgb(255, 255, 255); stroke: rgb(51, 51, 51);"></circle><circle r="10" class="node" id="1_9" cx="980" cy="607" style="fill: rgb(255, 255, 255); stroke: rgb(51, 51, 51);"></circle><circle r="10" class="node" id="2_0" cx="1160" cy="458.5" style="fill: rgb(255, 255, 255); stroke: rgb(51, 51, 51);"></circle><text class="text" dy=".35em" x="765" y="718.5" style="font-size: 12px;">Input Layer ∈ ℝ¹²</text><text class="text" dy=".35em" x="945" y="718.5" style="font-size: 12px;">Hidden Layer ∈ ℝ¹⁰</text><text class="text" dy=".35em" x="1125" y="718.5" style="font-size: 12px;">Output Layer ∈ ℝ¹</text></g><defs><marker id="arrow" viewBox="0 -5 10 10" markerWidth="7" markerHeight="7" orient="auto" refX="40"><path d="M0,-5L10,0L0,5" style="stroke: rgb(80, 80, 80); fill: none;"></path></marker></defs></svg>